<svg width="40" height="40" viewBox="0 0 40 40" fill="none" xmlns="http://www.w3.org/2000/svg">
<rect width="40" height="40" rx="20" fill="white"/>
<path d="M29 14.2145C28.3385 14.5075 27.627 14.703 26.8765 14.7955C27.6395 14.3425 28.2265 13.62 28.502 12.7665C27.788 13.185 26.997 13.4925 26.1555 13.6545C25.4835 12.942 24.525 12.5 23.463 12.5C21.423 12.5 19.7695 14.139 19.7695 16.16C19.7695 16.446 19.803 16.7245 19.866 16.995C16.797 16.841 14.075 15.382 12.254 13.168C11.934 13.709 11.754 14.3425 11.754 15.011C11.754 16.2815 12.4045 17.4 13.3965 18.059C12.791 18.0405 12.221 17.872 11.722 17.602C11.722 17.613 11.722 17.6295 11.722 17.645C11.722 19.4205 12.9955 20.899 14.6835 21.2355C14.375 21.32 14.049 21.367 13.713 21.367C13.4745 21.367 13.242 21.34 13.017 21.2995C13.487 22.7505 14.8505 23.811 16.466 23.8425C15.202 24.8225 13.61 25.4095 11.879 25.4095C11.58 25.4095 11.2875 25.3925 10.9985 25.3575C12.634 26.393 14.576 27 16.6605 27C23.453 27 27.169 21.422 27.169 16.583C27.169 16.4245 27.164 16.2665 27.1565 16.1105C27.8815 15.5985 28.5065 14.9525 29 14.2145Z" fill="#6E7D9A"/>
</svg>
