<svg width="40" height="40" viewBox="0 0 40 40" fill="none" xmlns="http://www.w3.org/2000/svg">
<rect width="40" height="40" rx="20" fill="white"/>
<path d="M17.5 20C17.5 18.6193 18.6193 17.5 20 17.5C21.3807 17.5 22.5 18.6193 22.5 20C22.5 21.3807 21.3807 22.5 20 22.5C18.6193 22.5 17.5 21.3807 17.5 20Z" fill="#6E7D9A"/>
<path fill-rule="evenodd" clip-rule="evenodd" d="M14 17C14 15.3261 15.3261 14 17 14H23C24.6739 14 26 15.3261 26 17V23C26 24.6739 24.6739 26 23 26H17C15.3261 26 14 24.6739 14 23V17ZM24 16C24 16.2761 23.7761 16.5 23.5 16.5C23.2239 16.5 23 16.2761 23 16C23 15.7239 23.2239 15.5 23.5 15.5C23.7761 15.5 24 15.7239 24 16ZM20 16.5C18.067 16.5 16.5 18.067 16.5 20C16.5 21.933 18.067 23.5 20 23.5C21.933 23.5 23.5 21.933 23.5 20C23.5 18.067 21.933 16.5 20 16.5Z" fill="#6E7D9A"/>
<path fill-rule="evenodd" clip-rule="evenodd" d="M11 16C11 13.2386 13.2386 11 16 11H24C26.7614 11 29 13.2386 29 16V24C29 26.7614 26.7614 29 24 29H16C13.2386 29 11 26.7614 11 24V16ZM17 13C14.7739 13 13 14.7739 13 17V23C13 25.2261 14.7739 27 17 27H23C25.2261 27 27 25.2261 27 23V17C27 14.7739 25.2261 13 23 13H17Z" fill="#6E7D9A"/>
</svg>
