<svg width="40" height="40" viewBox="0 0 40 40" fill="none" xmlns="http://www.w3.org/2000/svg">
<rect width="40" height="40" rx="20" fill="white"/>
<path fill-rule="evenodd" clip-rule="evenodd" d="M27.5 26.95C28.55 26.8 29.4 26 29.6 24.95C29.8 23.8 30 22.1 30.05 20C30.05 17.9 29.8 16.2 29.6 15.05C29.4 14 28.55 13.2 27.5 13.05C25.8 12.8 23.1 12.5 20 12.5C16.9 12.5 14.15 12.8 12.5 13.05C11.45 13.2 10.6 14 10.4 15.05C10.2 16.2 10 17.9 10 20C10 22.1 10.2 23.8 10.4 24.95C10.6 26 11.45 26.8 12.5 26.95C14.2 27.2 16.95 27.5 20 27.5C23.1 27.5 25.85 27.2 27.5 26.95ZM24 20L18 16.5V23.5L24 20Z" fill="#6E7D9A"/>
</svg>
