<svg width="150" height="33" viewBox="0 0 150 33" fill="none" xmlns="http://www.w3.org/2000/svg">
<path d="M10.9029 0.484574C10.2245 0.161525 9.35226 0 8.2862 0C6.67096 0 5.24147 0.379583 3.99773 1.13875C2.75399 1.89791 1.77677 2.9559 1.06606 4.3127C0.355354 5.66951 0 7.25245 0 9.06152C0 10.9029 0.339201 12.4778 1.0176 13.7861C1.71216 15.0945 2.68131 16.0959 3.92504 16.7905C5.16878 17.485 6.61442 17.8323 8.26197 17.8323C9.31188 17.8323 10.168 17.6788 10.8302 17.3719C11.5086 17.0489 12.1466 16.6774 12.7443 16.2574C13.0996 16.0313 13.35 16.0071 13.4954 16.1847C13.6569 16.3624 13.77 16.7985 13.8346 17.4931H14.3918C14.3595 16.8631 14.3353 16.0878 14.3191 15.1671C14.303 14.2303 14.2949 13.0027 14.2949 11.4844H13.7377C13.6246 12.5989 13.4711 13.4954 13.2773 14.1738C13.0835 14.836 12.72 15.4094 12.187 15.894C11.7832 16.3624 11.2663 16.7097 10.6364 16.9358C10.0064 17.162 9.39264 17.275 8.795 17.275C7.95508 17.275 7.21206 17.0651 6.56597 16.6451C5.93602 16.2251 5.40299 15.6436 4.96688 14.9006C4.54691 14.1415 4.22386 13.2612 3.99773 12.2597C3.78775 11.2421 3.68276 10.1437 3.68276 8.96461C3.68276 7.81778 3.77967 6.73557 3.9735 5.71796C4.18348 4.70036 4.49038 3.81198 4.89419 3.05281C5.31415 2.27749 5.83103 1.67178 6.44482 1.23566C7.07477 0.783394 7.8097 0.557259 8.64963 0.557259C9.31188 0.557259 9.94183 0.678403 10.5395 0.92069C11.1533 1.14682 11.6782 1.50218 12.1143 1.98675C12.4697 2.3098 12.7443 2.649 12.9381 3.00435C13.1481 3.35971 13.3096 3.78775 13.4227 4.28847C13.5357 4.77305 13.6407 5.37876 13.7377 6.10562H14.2949C14.2949 4.6519 14.303 3.48085 14.3191 2.59247C14.3353 1.70408 14.3595 0.952995 14.3918 0.339203H13.8346C13.77 1.03376 13.6488 1.47795 13.4711 1.67178C13.3096 1.84945 13.0673 1.81715 12.7443 1.57486C12.2112 1.1549 11.5975 0.79147 10.9029 0.484574Z" fill="#D3B99B"/>
<path d="M35.1121 0.823775V0.339203C34.8698 0.355355 34.5467 0.371507 34.1429 0.387659C33.7553 0.403812 33.3595 0.411888 32.9557 0.411888C32.5357 0.411888 32.0754 0.403812 31.5747 0.387659C31.0901 0.371507 30.6944 0.355355 30.3875 0.339203V0.823775C31.0336 0.872232 31.5181 0.993375 31.8412 1.1872C32.1804 1.38103 32.4065 1.68793 32.5196 2.10789C32.6327 2.52786 32.6892 3.13357 32.6892 3.92504V10.7091C32.6892 11.9205 32.56 13.0027 32.3015 13.9557C32.0431 14.9087 31.5908 15.6517 30.9447 16.1847C30.2986 16.7178 29.386 16.9843 28.2069 16.9843C27.4962 16.9843 26.9066 16.8631 26.4382 16.6209C25.9859 16.3786 25.6306 16.0232 25.3721 15.5548C25.1299 15.0864 24.9522 14.5291 24.8391 13.883C24.7422 13.2208 24.6937 12.4858 24.6937 11.6782V2.90744C24.6937 2.3098 24.7422 1.87368 24.8391 1.59909C24.936 1.30835 25.1218 1.11452 25.3964 1.0176C25.6871 0.904537 26.1071 0.839928 26.6563 0.823775V0.339203C26.2363 0.355355 25.7033 0.371507 25.0572 0.387659C24.4111 0.403812 23.7569 0.411888 23.0946 0.411888C22.3678 0.411888 21.6894 0.403812 21.0594 0.387659C20.4295 0.371507 19.9126 0.355355 19.5088 0.339203V0.823775C20.0418 0.839928 20.4376 0.904537 20.696 1.0176C20.9706 1.11452 21.1483 1.30835 21.229 1.59909C21.326 1.87368 21.3744 2.3098 21.3744 2.90744V10.5152C21.3744 11.5651 21.4229 12.4697 21.5198 13.2288C21.6167 13.9719 21.8024 14.6099 22.077 15.1429C22.3678 15.6759 22.7635 16.1524 23.2642 16.5724C23.8296 17.057 24.4838 17.3881 25.2268 17.5658C25.9859 17.7435 26.7532 17.8323 27.5285 17.8323C28.6753 17.8323 29.6445 17.6304 30.4359 17.2266C31.2435 16.8066 31.8493 16.2574 32.2531 15.579C32.6407 14.9491 32.8992 14.2061 33.0284 13.35C33.1738 12.4939 33.2465 11.5248 33.2465 10.4426V3.73121C33.2465 3.00435 33.2949 2.4471 33.3918 2.05944C33.4887 1.65563 33.6664 1.36488 33.9249 1.1872C34.1994 0.993375 34.5952 0.872232 35.1121 0.823775Z" fill="#D3B99B"/>
<path d="M55.3562 0.339203V0.823775C54.8394 0.872232 54.4436 0.993375 54.169 1.1872C53.8944 1.36488 53.7087 1.65563 53.6118 2.05944C53.531 2.4471 53.4906 3.00435 53.4906 3.73121V17.5658C53.3453 17.5496 53.1837 17.5415 53.0061 17.5415C52.8445 17.5415 52.6669 17.5496 52.473 17.5658L42.0789 3.44047V13.9073C42.0789 14.6826 42.1274 15.2883 42.2243 15.7244C42.3212 16.1444 42.5312 16.4513 42.8542 16.6451C43.1935 16.8228 43.7023 16.9439 44.3807 17.0085V17.4931C44.0738 17.4608 43.678 17.4446 43.1934 17.4446C42.7089 17.4285 42.2485 17.4204 41.8124 17.4204C41.4248 17.4204 41.029 17.4285 40.6252 17.4446C40.2376 17.4446 39.9145 17.4608 39.6561 17.4931V17.0085C40.1891 16.9439 40.5848 16.8228 40.8433 16.6451C41.1179 16.4674 41.2955 16.1767 41.3763 15.7729C41.4732 15.369 41.5217 14.8118 41.5217 14.1011V2.90744C41.5217 2.3098 41.4732 1.87368 41.3763 1.59909C41.2955 1.30835 41.1179 1.11452 40.8433 1.0176C40.5848 0.904537 40.1891 0.839928 39.6561 0.823775V0.339203C39.9145 0.355355 40.2376 0.371507 40.6252 0.387659C41.029 0.403812 41.4248 0.411888 41.8124 0.411888C42.1839 0.411888 42.5474 0.403812 42.9027 0.387659C43.2581 0.371507 43.573 0.355355 43.8476 0.339203L52.9334 12.4293V3.92504C52.9334 3.13357 52.8849 2.52786 52.788 2.10789C52.6911 1.68793 52.4811 1.38103 52.1581 1.1872C51.835 0.993375 51.3262 0.872232 50.6316 0.823775V0.339203C50.9385 0.355355 51.3343 0.371507 51.8189 0.387659C52.3196 0.403812 52.7799 0.411888 53.1999 0.411888C53.6037 0.411888 53.9994 0.403812 54.3871 0.387659C54.7909 0.371507 55.114 0.355355 55.3562 0.339203Z" fill="#D3B99B"/>
<path fill-rule="evenodd" clip-rule="evenodd" d="M73.4327 15.4579L67.5451 0.266516C67.3513 0.282668 67.1413 0.290744 66.9152 0.290744C66.6891 0.290744 66.4791 0.282668 66.2853 0.266516L60.7369 14.6099C60.4138 15.4498 60.0746 16.0394 59.7193 16.3786C59.3801 16.7178 59.0328 16.9278 58.6775 17.0085V17.4931C58.9197 17.4608 59.1943 17.4446 59.5012 17.4446C59.8243 17.4285 60.1635 17.4204 60.5188 17.4204C61.0034 17.4204 61.488 17.4285 61.9725 17.4446C62.4571 17.4446 62.9579 17.4608 63.4747 17.4931V17.0085C62.974 16.9924 62.554 16.9278 62.2148 16.8147C61.8756 16.6855 61.6333 16.4755 61.488 16.1847C61.3426 15.894 61.3022 15.4902 61.3668 14.9733C61.4314 14.4564 61.6172 13.7942 61.9241 12.9866L62.6901 10.9998H68.1565L69.6288 14.9733C69.9519 15.7971 70.0003 16.3382 69.7742 16.5966C69.548 16.8389 69.0231 16.9762 68.1993 17.0085V17.4931C68.587 17.4608 69.0877 17.4446 69.7015 17.4446C70.3153 17.4285 70.9775 17.4204 71.6882 17.4204C72.302 17.4204 72.8997 17.4285 73.4812 17.4446C74.0788 17.4446 74.5876 17.4608 75.0076 17.4931V17.0085C74.7653 16.9924 74.4988 16.8793 74.208 16.6693C73.9334 16.4432 73.675 16.0394 73.4327 15.4579ZM67.977 10.5152L65.4776 3.76971L62.8769 10.5152H67.977Z" fill="#D3B99B"/>
<path fill-rule="evenodd" clip-rule="evenodd" d="M78.4176 0.339203C78.8214 0.355355 79.3383 0.371507 79.9682 0.387659C80.5981 0.403812 81.2281 0.411888 81.858 0.411888C82.6495 0.411888 83.4006 0.403812 84.1113 0.387659C84.822 0.371507 85.3227 0.363431 85.6135 0.363431C87.5195 0.363431 88.9409 0.718784 89.8777 1.42949C90.8307 2.1402 91.3072 3.05281 91.3072 4.16733C91.3072 4.73267 91.1538 5.298 90.8469 5.86334C90.5561 6.42867 90.0796 6.93747 89.4174 7.38974C88.7713 7.84201 87.9233 8.18121 86.8734 8.40735V8.4558C88.2948 8.58502 89.4174 8.87577 90.2412 9.32803C91.0811 9.76415 91.6787 10.2891 92.0341 10.9029C92.3894 11.5005 92.5671 12.1305 92.5671 12.7927C92.5671 13.778 92.3087 14.626 91.7918 15.3367C91.2911 16.0313 90.5642 16.5643 89.6112 16.9358C88.6582 17.3073 87.5114 17.4931 86.1707 17.4931C85.8154 17.4931 85.2743 17.485 84.5474 17.4689C83.8206 17.4366 82.9403 17.4204 81.9065 17.4204C81.2442 17.4204 80.5981 17.4285 79.9682 17.4446C79.3383 17.4446 78.8214 17.4608 78.4176 17.4931V17.0085C78.9506 16.9762 79.3463 16.9116 79.6048 16.8147C79.8794 16.7178 80.057 16.5239 80.1378 16.2332C80.2347 15.9425 80.2832 15.5063 80.2832 14.9249V2.90744C80.2832 2.3098 80.2347 1.87368 80.1378 1.59909C80.057 1.30835 79.8794 1.11452 79.6048 1.0176C79.3463 0.904537 78.9506 0.839928 78.4176 0.823775V0.339203ZM85.2016 0.823775C84.5393 0.823775 84.1032 0.961071 83.8932 1.23566C83.6994 1.51025 83.6025 2.06751 83.6025 2.90744V8.38312H84.8382C85.6619 8.38312 86.3 8.20544 86.7522 7.85009C87.2045 7.47858 87.5114 6.99401 87.6729 6.39637C87.8344 5.78257 87.9152 5.1284 87.9152 4.43385C87.9152 3.23856 87.7052 2.3421 87.2853 1.74446C86.8653 1.13067 86.1707 0.823775 85.2016 0.823775ZM83.6025 14.9249V8.795H84.9593C86.4292 8.795 87.4791 9.1342 88.109 9.81261C88.7551 10.491 89.0782 11.4521 89.0782 12.6958C89.0782 14.0526 88.7794 15.1025 88.1817 15.8455C87.6002 16.5724 86.6472 16.9358 85.3227 16.9358C84.8543 16.9358 84.499 16.8874 84.2567 16.7905C84.0144 16.6935 83.8448 16.4997 83.7479 16.209C83.651 15.9182 83.6025 15.4902 83.6025 14.9249Z" fill="#D3B99B"/>
<path d="M112.589 0.823775V0.339203C112.347 0.355355 112.024 0.371507 111.62 0.387659C111.232 0.403812 110.836 0.411888 110.433 0.411888C110.013 0.411888 109.552 0.403812 109.051 0.387659C108.567 0.371507 108.171 0.355355 107.864 0.339203V0.823775C108.51 0.872232 108.995 0.993375 109.318 1.1872C109.657 1.38103 109.883 1.68793 109.996 2.10789C110.109 2.52786 110.166 3.13357 110.166 3.92504V10.7091C110.166 11.9205 110.037 13.0027 109.778 13.9557C109.52 14.9087 109.068 15.6517 108.422 16.1847C107.775 16.7178 106.863 16.9843 105.684 16.9843C104.973 16.9843 104.383 16.8631 103.915 16.6209C103.463 16.3786 103.107 16.0232 102.849 15.5548C102.607 15.0864 102.429 14.5291 102.316 13.883C102.219 13.2208 102.171 12.4858 102.171 11.6782V2.90744C102.171 2.3098 102.219 1.87368 102.316 1.59909C102.413 1.30835 102.599 1.11452 102.873 1.0176C103.164 0.904537 103.584 0.839928 104.133 0.823775V0.339203C103.713 0.355355 103.18 0.371507 102.534 0.387659C101.888 0.403812 101.234 0.411888 100.571 0.411888C99.8446 0.411888 99.1662 0.403812 98.5363 0.387659C97.9063 0.371507 97.3894 0.355355 96.9856 0.339203V0.823775C97.5186 0.839928 97.9144 0.904537 98.1728 1.0176C98.4474 1.11452 98.6251 1.30835 98.7059 1.59909C98.8028 1.87368 98.8512 2.3098 98.8512 2.90744V10.5152C98.8512 11.5651 98.8997 12.4697 98.9966 13.2288C99.0935 13.9719 99.2793 14.6099 99.5538 15.1429C99.8446 15.6759 100.24 16.1524 100.741 16.5724C101.306 17.057 101.961 17.3881 102.704 17.5658C103.463 17.7435 104.23 17.8323 105.005 17.8323C106.152 17.8323 107.121 17.6304 107.913 17.2266C108.72 16.8066 109.326 16.2574 109.73 15.579C110.118 14.9491 110.376 14.2061 110.505 13.35C110.651 12.4939 110.723 11.5248 110.723 10.4426V3.73121C110.723 3.00435 110.772 2.4471 110.869 2.05944C110.966 1.65563 111.143 1.36488 111.402 1.1872C111.676 0.993375 112.072 0.872232 112.589 0.823775Z" fill="#D3B99B"/>
<path d="M124.256 0.339203V0.823775C123.707 0.839928 123.287 0.904537 122.996 1.0176C122.722 1.11452 122.536 1.30835 122.439 1.59909C122.342 1.87368 122.294 2.3098 122.294 2.90744V15.1187C122.294 15.6356 122.334 16.0313 122.415 16.3059C122.512 16.5643 122.681 16.7339 122.924 16.8147C123.166 16.8955 123.513 16.9358 123.965 16.9358H125.346C125.976 16.9358 126.526 16.8228 126.994 16.5966C127.479 16.3705 127.898 16.0394 128.254 15.6033C128.609 15.1671 128.9 14.6341 129.126 14.0042C129.352 13.3581 129.514 12.6312 129.611 11.8236H130.168C130.119 12.3566 130.095 13.0512 130.095 13.9073C130.095 14.2626 130.103 14.7714 130.119 15.4337C130.152 16.0959 130.2 16.7824 130.265 17.4931C129.441 17.4608 128.512 17.4446 127.479 17.4446C126.445 17.4285 125.524 17.4204 124.716 17.4204H123.238C122.641 17.4204 121.987 17.4285 121.276 17.4446C120.581 17.4446 119.871 17.4527 119.144 17.4689C118.433 17.4689 117.755 17.4769 117.109 17.4931V17.0085C117.642 16.9762 118.037 16.9116 118.296 16.8147C118.57 16.7178 118.748 16.5239 118.829 16.2332C118.926 15.9425 118.974 15.5063 118.974 14.9249V2.90744C118.974 2.3098 118.926 1.87368 118.829 1.59909C118.748 1.30835 118.57 1.11452 118.296 1.0176C118.037 0.904537 117.642 0.839928 117.109 0.823775V0.339203C117.512 0.355355 118.029 0.371507 118.659 0.387659C119.289 0.403812 119.968 0.411888 120.694 0.411888C121.357 0.411888 122.011 0.403812 122.657 0.387659C123.303 0.371507 123.836 0.355355 124.256 0.339203Z" fill="#D3B99B"/>
<path fill-rule="evenodd" clip-rule="evenodd" d="M148.425 15.4579L142.538 0.266516C142.344 0.282668 142.134 0.290744 141.908 0.290744C141.681 0.290744 141.472 0.282668 141.278 0.266516L135.729 14.6099C135.406 15.4498 135.067 16.0394 134.712 16.3786C134.373 16.7178 134.025 16.9278 133.67 17.0085V17.4931C133.912 17.4608 134.187 17.4446 134.494 17.4446C134.817 17.4285 135.156 17.4204 135.511 17.4204C135.996 17.4204 136.48 17.4285 136.965 17.4446C137.45 17.4446 137.95 17.4608 138.467 17.4931V17.0085C137.966 16.9924 137.546 16.9278 137.207 16.8147C136.868 16.6855 136.626 16.4755 136.48 16.1847C136.335 15.894 136.295 15.4902 136.359 14.9733C136.424 14.4564 136.61 13.7942 136.917 12.9866L137.682 10.9998H143.149L144.621 14.9733C144.944 15.7971 144.993 16.3382 144.767 16.5966C144.54 16.8389 144.016 16.9762 143.192 17.0085V17.4931C143.579 17.4608 144.08 17.4446 144.694 17.4446C145.308 17.4285 145.97 17.4204 146.681 17.4204C147.294 17.4204 147.892 17.4285 148.474 17.4446C149.071 17.4446 149.58 17.4608 150 17.4931V17.0085C149.758 16.9924 149.491 16.8793 149.2 16.6693C148.926 16.4432 148.667 16.0394 148.425 15.4579ZM142.969 10.5152L140.47 3.76972L137.869 10.5152H142.969Z" fill="#D3B99B"/>
<path d="M58.6864 23.5503H57.9959C57.9959 25.0767 58.2503 26.3003 58.7591 27.221C59.2679 28.1174 60.1401 28.7595 61.3758 29.1472C62.5872 29.5348 64.259 29.7286 66.3911 29.7286C68.6686 29.7286 70.4373 29.8134 71.6972 29.983C72.9571 30.1284 73.8535 30.3949 74.3866 30.7826C74.8954 31.1702 75.174 31.7396 75.2225 32.4907V32.6724H75.8766V32.4907C75.9251 31.7396 76.2158 31.1702 76.7489 30.7826C77.2819 30.3949 78.1784 30.1284 79.4383 29.983C80.6739 29.8134 82.4305 29.7286 84.708 29.7286C86.937 29.7286 88.6694 29.5348 89.905 29.1472C91.1407 28.7595 92.0008 28.1174 92.4854 27.221C92.9942 26.3003 93.2486 25.0767 93.2486 23.5503H92.5581C92.5581 24.1318 92.4733 24.6164 92.3037 25.0041C92.1583 25.3917 91.8191 25.6946 91.2861 25.9126C90.7773 26.1065 90.002 26.2518 88.9601 26.3487C87.9183 26.4214 86.5009 26.4578 84.708 26.4578C83.0847 26.4578 81.7279 26.6031 80.6376 26.8939C79.5473 27.1604 78.6629 27.5359 77.9845 28.0205C77.3061 28.5051 76.7852 29.0624 76.4218 29.6923C76.0341 30.3222 75.7434 30.9764 75.5496 31.6548C75.3557 30.9764 75.0771 30.3222 74.7137 29.6923C74.326 29.0624 73.793 28.5051 73.1146 28.0205C72.4362 27.5359 71.5518 27.1604 70.4615 26.8939C69.3712 26.6031 68.0144 26.4578 66.3911 26.4578C64.6709 26.4578 63.302 26.4214 62.2844 26.3487C61.2668 26.2518 60.5036 26.1065 59.9948 25.9126C59.4859 25.6946 59.1468 25.3917 58.9771 25.0041C58.8075 24.6164 58.7106 24.1318 58.6864 23.5503Z" fill="#D3B99B"/>
</svg>
