<svg width="600" height="456" viewBox="0 0 600 456" fill="none" xmlns="http://www.w3.org/2000/svg">
<rect x="72" width="456" height="456" fill="#FFE7CB"/>
<rect y="78" width="130" height="130" fill="#6E7D9A"/>
<path d="M180 108H420V124H180V108Z" fill="white"/>
<path d="M180 332H420V348H180V332Z" fill="white"/>
<path d="M420 220H180V236H420V220Z" fill="white"/>
<path d="M180 276H420V292H180V276Z" fill="white"/>
<path d="M420 164H180V180H420V164Z" fill="white"/>
<path d="M344 268C344 197.308 401.308 140 472 140C542.692 140 600 197.308 600 268C600 338.692 542.692 396 472 396C401.308 396 344 338.692 344 268Z" fill="white"/>
<path fill-rule="evenodd" clip-rule="evenodd" d="M408 268C408 232.654 436.654 204 472 204C507.346 204 536 232.654 536 268C536 303.346 507.346 332 472 332C436.654 332 408 303.346 408 268ZM472 316C445.49 316 424 294.51 424 268C424 241.49 445.49 220 472 220C498.51 220 520 241.49 520 268C520 294.51 498.51 316 472 316Z" fill="#6E7D9A"/>
<path fill-rule="evenodd" clip-rule="evenodd" d="M472 172C418.981 172 376 214.981 376 268C376 321.019 418.981 364 472 364C525.019 364 568 321.019 568 268C568 214.981 525.019 172 472 172ZM392 268C392 312.183 427.817 348 472 348C516.183 348 552 312.183 552 268C552 223.817 516.183 188 472 188C427.817 188 392 223.817 392 268Z" fill="#6E7D9A"/>
<path fill-rule="evenodd" clip-rule="evenodd" d="M472 140C401.308 140 344 197.308 344 268C344 338.692 401.308 396 472 396C542.692 396 600 338.692 600 268C600 197.308 542.692 140 472 140ZM360 268C360 329.856 410.144 380 472 380C533.856 380 584 329.856 584 268C584 206.144 533.856 156 472 156C410.144 156 360 206.144 360 268Z" fill="#6E7D9A"/>
<rect x="100" y="280" width="148" height="148" rx="74" fill="#FF7D61"/>
<rect x="440" y="236" width="64" height="64" rx="32" fill="#FFE7CB"/>
<path d="M164 319L164 389.711L199.355 354.355L164 319Z" fill="white"/>
</svg>
