<svg width="600" height="480" viewBox="0 0 600 480" fill="none" xmlns="http://www.w3.org/2000/svg">
<mask id="mask0_916_589" style="mask-type:alpha" maskUnits="userSpaceOnUse" x="0" y="0" width="600" height="480">
<rect width="600" height="480" fill="#FFE7CB"/>
</mask>
<g mask="url(#mask0_916_589)">
<path d="M350 130L300 180V130H350Z" fill="#FF7D61"/>
<path d="M250 230V180H300L250 230Z" fill="#FF7D61"/>
<path d="M200 280L250 230H200V280Z" fill="#FF7D61"/>
<path d="M150 330V280H200L150 330Z" fill="#FF7D61"/>
<path d="M100 380L150 330H100L100 380Z" fill="#FF7D61"/>
<path d="M50 430L50 380H100L50 430Z" fill="#FF7D61"/>
<path d="M50 430H-7.62939e-06L-3.25826e-06 480L50 430Z" fill="#FF7D61"/>
<path d="M600 80L550 130V80H600Z" fill="#6E7D9A"/>
<path d="M500 180V130H550L500 180Z" fill="#6E7D9A"/>
<path d="M450 230L500 180H450V230Z" fill="#6E7D9A"/>
<path d="M400 280V230H450L400 280Z" fill="#6E7D9A"/>
<path d="M350 330L400 280H350V330Z" fill="#6E7D9A"/>
<path d="M300 380V330H350L300 380Z" fill="#6E7D9A"/>
<path d="M250 430L300 380H250V430Z" fill="#6E7D9A"/>
<path d="M250 430H200V480L250 430Z" fill="#6E7D9A"/>
<path d="M374 0C374 12.1503 364.15 22 352 22C339.85 22 330 12.1503 330 0C330 -12.1503 339.85 -22 352 -22C364.15 -22 374 -12.1503 374 0Z" fill="white"/>
<path fill-rule="evenodd" clip-rule="evenodd" d="M414 0C414 34.2417 386.242 62 352 62C317.758 62 290 34.2417 290 0C290 -34.2417 317.758 -62 352 -62C386.242 -62 414 -34.2417 414 0ZM398 0C398 25.4051 377.405 46 352 46C326.595 46 306 25.4051 306 0C306 -25.4051 326.595 -46 352 -46C377.405 -46 398 -25.4051 398 0Z" fill="white"/>
<path fill-rule="evenodd" clip-rule="evenodd" d="M352 102C408.333 102 454 56.333 454 0C454 -56.333 408.333 -102 352 -102C295.667 -102 250 -56.333 250 0C250 56.333 295.667 102 352 102ZM352 86C399.496 86 438 47.4965 438 0C438 -47.4965 399.496 -86 352 -86C304.504 -86 266 -47.4965 266 0C266 47.4965 304.504 86 352 86Z" fill="white"/>
<path fill-rule="evenodd" clip-rule="evenodd" d="M403 132.566C456.229 112.075 494 60.4487 494 0C494 -78.4244 430.424 -142 352 -142C273.576 -142 210 -78.4244 210 0C210 73.9128 266.471 134.636 338.622 141.378L0 480L103 480V430L153 430L153 380H203V330H253V280H303V230H353V180H403V132.566ZM478 0C478 69.5879 421.588 126 352 126C282.412 126 226 69.5879 226 0C226 -69.5879 282.412 -126 352 -126C421.588 -126 478 -69.5879 478 0Z" fill="white"/>
<path d="M450 330L500 380L550 430L600 480V430H550V380H500V330H450Z" fill="white"/>
<path d="M36 100C36 108.837 28.8366 116 20 116C11.1634 116 4 108.837 4 100C4 91.1634 11.1634 84 20 84C28.8366 84 36 91.1634 36 100Z" fill="white"/>
<path d="M154 242C158.418 242 162 238.418 162 234C162 229.582 158.418 226 154 226C149.582 226 146 229.582 146 234C146 238.418 149.582 242 154 242Z" fill="white"/>
<path d="M600 296C600 304.837 592.837 312 584 312C575.163 312 568 304.837 568 296C568 287.163 575.163 280 584 280C592.837 280 600 287.163 600 296Z" fill="white"/>
</g>
</svg>
