<svg width="600" height="448" viewBox="0 0 600 448" fill="none" xmlns="http://www.w3.org/2000/svg">
<mask id="mask0_916_583" style="mask-type:alpha" maskUnits="userSpaceOnUse" x="0" y="0" width="600" height="448">
<rect width="600" height="448" fill="white"/>
</mask>
<g mask="url(#mask0_916_583)">
<path d="M3.0509 281.245C12.6847 233.196 55.1153 197 106 197C163.99 197 211 244.01 211 302C211 332.884 197.666 360.654 176.441 379.867C172.701 376.002 168.646 372.443 164.318 369.233C183.114 352.915 195 328.846 195 302C195 252.847 155.153 213 106 213C63.9203 213 28.6614 242.203 19.3847 281.448C16.2964 281.152 13.1659 281 9.99997 281C7.6634 281 5.34612 281.083 3.0509 281.245Z" fill="#6E7D9A"/>
<path d="M35.1617 284.295C43.0742 252.534 71.7888 229 106 229C146.317 229 179 261.683 179 302C179 325.848 167.564 347.026 149.877 360.347C143.916 357.358 137.608 354.958 131.029 353.225C149.962 343.957 163 324.501 163 302C163 270.52 137.48 245 106 245C78.7247 245 55.9239 264.158 50.3193 289.751C45.4683 287.531 40.4025 285.699 35.1617 284.295Z" fill="#6E7D9A"/>
<path fill-rule="evenodd" clip-rule="evenodd" d="M65.1729 298.209C67.0861 277.342 84.6346 261 106 261C128.644 261 147 279.356 147 302C147 324.644 128.644 343 106 343C104.081 343 102.192 342.868 100.343 342.613C93.2573 324.538 80.9044 309.107 65.1729 298.209ZM131 302C131 315.807 119.807 327 106 327C92.1928 327 81 315.807 81 302C81 288.193 92.1928 277 106 277C119.807 277 131 288.193 131 302Z" fill="#6E7D9A"/>
<path fill-rule="evenodd" clip-rule="evenodd" d="M534.928 299.558C520.202 310.291 508.614 325.069 501.797 342.26C499.272 342.746 496.666 343 494 343C471.356 343 453 324.644 453 302C453 279.356 471.356 261 494 261C515.824 261 533.665 278.051 534.928 299.558ZM494 327C507.807 327 519 315.807 519 302C519 288.193 507.807 277 494 277C480.193 277 469 288.193 469 302C469 315.807 480.193 327 494 327Z" fill="#6E7D9A"/>
<path d="M549.861 290.606C544.582 264.586 521.578 245 494 245C462.52 245 437 270.52 437 302C437 323.968 449.427 343.033 467.635 352.549C461.219 354.318 455.064 356.715 449.241 359.672C432.056 346.316 421 325.449 421 302C421 261.683 453.683 229 494 229C528.398 229 557.24 252.792 564.966 284.817C559.736 286.332 554.687 288.275 549.861 290.606Z" fill="#6E7D9A"/>
<path d="M580.664 281.655C571.463 242.306 536.154 213 494 213C444.847 213 405 252.847 405 302C405 328.478 416.562 352.255 434.914 368.558C430.598 371.773 426.554 375.331 422.821 379.192C402.025 360.007 389 332.524 389 302C389 244.01 436.01 197 494 197C544.841 197 587.243 233.135 596.924 281.123C595.293 281.041 593.651 281 592 281C588.165 281 584.383 281.223 580.664 281.655Z" fill="#6E7D9A"/>
<path d="M105 195C105 87.3045 192.304 0 300 0C407.696 0 495 87.3045 495 195V448H105V195Z" fill="#FFE7CB"/>
<path d="M279 86C283.971 86 288 81.9706 288 77C288 72.0294 283.971 68 279 68C274.029 68 270 72.0294 270 77C270 81.9706 274.029 86 279 86Z" fill="white"/>
<path d="M202 118C202 122.971 197.971 127 193 127C188.029 127 184 122.971 184 118C184 113.029 188.029 109 193 109C197.971 109 202 113.029 202 118Z" fill="white"/>
<path d="M351 284C351 312.167 328.167 335 300 335C271.833 335 249 312.167 249 284C249 255.833 271.833 233 300 233C328.167 233 351 255.833 351 284Z" fill="white"/>
<path d="M105 284H495V448H105V284Z" fill="#FF7D61"/>
<path d="M204 448C204 502.124 160.124 546 106 546C51.8761 546 8 502.124 8 448C8 393.876 51.8761 350 106 350C160.124 350 204 393.876 204 448Z" fill="white"/>
<path d="M400 448C400 502.676 355.676 547 301 547C246.324 547 202 502.676 202 448C202 393.324 246.324 349 301 349C355.676 349 400 393.324 400 448Z" fill="white"/>
<path d="M593 448C593 502.676 548.676 547 494 547C439.324 547 395 502.676 395 448C395 393.324 439.324 349 494 349C548.676 349 593 393.324 593 448Z" fill="white"/>
<path fill-rule="evenodd" clip-rule="evenodd" d="M147 448C147 470.644 128.644 489 106 489C83.3563 489 65 470.644 65 448C65 425.356 83.3563 407 106 407C128.644 407 147 425.356 147 448ZM131 448C131 461.807 119.807 473 106 473C92.1929 473 81 461.807 81 448C81 434.193 92.1929 423 106 423C119.807 423 131 434.193 131 448Z" fill="#6E7D9A"/>
<path fill-rule="evenodd" clip-rule="evenodd" d="M106 521C146.317 521 179 488.317 179 448C179 407.683 146.317 375 106 375C65.6832 375 33 407.683 33 448C33 488.317 65.6832 521 106 521ZM106 505C137.48 505 163 479.48 163 448C163 416.52 137.48 391 106 391C74.5198 391 49 416.52 49 448C49 479.48 74.5198 505 106 505Z" fill="#6E7D9A"/>
<path fill-rule="evenodd" clip-rule="evenodd" d="M494 489C516.644 489 535 470.644 535 448C535 425.356 516.644 407 494 407C471.356 407 453 425.356 453 448C453 470.644 471.356 489 494 489ZM494 473C507.807 473 519 461.807 519 448C519 434.193 507.807 423 494 423C480.193 423 469 434.193 469 448C469 461.807 480.193 473 494 473Z" fill="#6E7D9A"/>
<path fill-rule="evenodd" clip-rule="evenodd" d="M494 521C534.317 521 567 488.317 567 448C567 407.683 534.317 375 494 375C453.683 375 421 407.683 421 448C421 488.317 453.683 521 494 521ZM494 505C525.48 505 551 479.48 551 448C551 416.52 525.48 391 494 391C462.52 391 437 416.52 437 448C437 479.48 462.52 505 494 505Z" fill="#6E7D9A"/>
<path fill-rule="evenodd" clip-rule="evenodd" d="M342 448C342 470.644 323.644 489 301 489C278.356 489 260 470.644 260 448C260 425.356 278.356 407 301 407C323.644 407 342 425.356 342 448ZM326 448C326 461.807 314.807 473 301 473C287.193 473 276 461.807 276 448C276 434.193 287.193 423 301 423C314.807 423 326 434.193 326 448Z" fill="#6E7D9A"/>
<path fill-rule="evenodd" clip-rule="evenodd" d="M374 448C374 488.317 341.317 521 301 521C260.683 521 228 488.317 228 448C228 407.683 260.683 375 301 375C341.317 375 374 407.683 374 448ZM358 448C358 479.48 332.48 505 301 505C269.52 505 244 479.48 244 448C244 416.52 269.52 391 301 391C332.48 391 358 416.52 358 448Z" fill="#6E7D9A"/>
<path fill-rule="evenodd" clip-rule="evenodd" d="M6.95945 482.957C-49.6243 481.348 -95 434.973 -95 378C-95 320.01 -47.9899 273 10 273C55.7338 273 94.6385 302.239 109.041 343.043C151.92 344.262 188.362 371.189 203.5 408.954C218.994 370.299 256.809 343 301 343C344.268 343 381.423 369.171 397.5 406.546C413.449 369.467 450.145 343.415 492.973 343.005C507.386 302.221 546.281 273 592 273C649.99 273 697 320.01 697 378C697 435.647 650.544 482.444 593.027 482.995C578.614 523.779 539.719 553 494 553C450.732 553 413.577 526.829 397.5 489.454C381.423 526.829 344.268 553 301 553C256.809 553 218.994 525.701 203.5 487.046C188.006 525.701 150.191 553 106 553C60.2662 553 21.3615 523.761 6.95945 482.957ZM2.66059 466.702C-43.0594 462.97 -79 424.682 -79 378C-79 328.847 -39.1533 289 10 289C47.0714 289 78.849 311.665 92.2312 343.895C86.7567 344.612 81.4149 345.75 76.2395 347.277C64.6403 322.311 39.3418 305 10 305C-30.3168 305 -63 337.683 -63 378C-63 415.279 -35.0561 446.032 1.02811 450.454C1.155 455.986 1.70975 461.413 2.66059 466.702ZM597.314 466.844C643.993 464.095 681 425.369 681 378C681 328.847 641.153 289 592 289C554.827 289 522.977 311.79 509.659 344.16C515.092 344.972 520.388 346.201 525.515 347.812C537 322.558 562.449 305 592 305C632.317 305 665 337.683 665 378C665 415.967 636.016 447.164 598.967 450.672C598.829 456.178 598.268 461.579 597.314 466.844ZM598.162 434.671C626.744 431.598 649 407.398 649 378C649 346.52 623.48 321 592 321C569.181 321 549.494 334.409 540.388 353.777C545.229 356.164 549.859 358.914 554.243 361.991C560.479 347.302 575.037 337 592 337C614.644 337 633 355.356 633 378C633 399.664 616.198 417.403 594.915 418.898C596.385 424.006 597.478 429.275 598.162 434.671ZM588.799 402.797C589.847 402.931 590.915 403 592 403C605.807 403 617 391.807 617 378C617 364.193 605.807 353 592 353C579.901 353 569.809 361.595 567.498 373.013C576.227 381.57 583.469 391.639 588.799 402.797ZM1.86951 434.425C-25.7595 430.479 -47 406.72 -47 378C-47 346.52 -21.4802 321 10 321C32.5096 321 51.9718 334.048 61.2358 352.993C56.371 355.289 51.7109 357.948 47.2905 360.934C40.8163 346.81 26.5538 337 10 337C-12.6437 337 -31 355.356 -31 378C-31 398.999 -15.2139 416.31 5.13824 418.715C3.6635 423.803 2.56332 429.05 1.86951 434.425ZM11.1161 402.976C10.7461 402.992 10.374 403 10 403C-3.80712 403 -15 391.807 -15 378C-15 364.193 -3.80712 353 10 353C21.5401 353 31.2539 360.819 34.1327 371.448C24.6249 380.378 16.781 391.059 11.1161 402.976ZM195 448C195 497.153 155.153 537 106 537C56.8466 537 17 497.153 17 448C17 398.847 56.8466 359 106 359C155.153 359 195 398.847 195 448ZM406 448C406 451.33 405.845 454.624 405.542 457.875C410.455 502.381 448.185 537 494 537C543.153 537 583 497.153 583 448C583 398.847 543.153 359 494 359C448.185 359 410.455 393.619 405.542 438.125C405.845 441.376 406 444.67 406 448ZM301 359C346.815 359 384.545 393.619 389.458 438.125C389.155 441.376 389 444.67 389 448C389 451.33 389.155 454.624 389.458 457.875C384.545 502.381 346.815 537 301 537C251.847 537 212 497.153 212 448C212 398.847 251.847 359 301 359Z" fill="#6E7D9A"/>
</g>
</svg>
