<svg width="600" height="448" viewBox="0 0 600 448" fill="none" xmlns="http://www.w3.org/2000/svg">
<mask id="mask0_916_586" style="mask-type:alpha" maskUnits="userSpaceOnUse" x="0" y="0" width="600" height="448">
<rect width="600" height="448" fill="white"/>
</mask>
<g mask="url(#mask0_916_586)">
<path d="M0 400H600V448H0V400Z" fill="#FF7D61"/>
<path d="M204 176C171.171 176 144.501 149.635 144.007 116.923C149.465 116.183 154.805 115.07 160 113.609V116C160 140.301 179.699 160 204 160C228.301 160 248 140.301 248 116V0C248 21.8188 253.823 42.2775 264 59.9068V116C264 149.137 237.137 176 204 176Z" fill="#FFE7CB"/>
<path d="M96 116V113.609C106.176 116.47 116.909 118 128 118H128.026C129.086 159.049 162.695 192 204 192C245.974 192 280 157.974 280 116V81.5851C289.167 91.4684 299.979 99.8049 312 106.159V116C312 163.408 281.453 203.682 238.968 218.213C248.708 253.826 281.298 280 320 280C363.2 280 398.783 247.39 403.475 205.443C413.075 210.89 424.174 214 436 214C447.478 214 458.271 211.07 467.673 205.918C463.286 272.225 415.229 326.595 352 340.531V424H288V340.531C229.227 327.577 183.563 279.688 173.895 219.749C128.898 206.714 96 165.199 96 116Z" fill="#FFE7CB"/>
<path fill-rule="evenodd" clip-rule="evenodd" d="M128 -64C92.6538 -64 64 -35.3462 64 0C64 35.3462 92.6538 64 128 64C163.346 64 192 35.3462 192 0C192 -35.3462 163.346 -64 128 -64ZM80 0C80 26.5097 101.49 48 128 48C154.51 48 176 26.5097 176 0C176 -26.5097 154.51 -48 128 -48C101.49 -48 80 -26.5097 80 0Z" fill="#6E7D9A"/>
<path fill-rule="evenodd" clip-rule="evenodd" d="M32 0C32 -53.0193 74.9807 -96 128 -96C181.019 -96 224 -53.0193 224 0C224 53.0193 181.019 96 128 96C74.9807 96 32 53.0193 32 0ZM128 80C83.8172 80 48 44.1828 48 0C48 -44.1828 83.8172 -80 128 -80C172.183 -80 208 -44.1828 208 0C208 44.1828 172.183 80 128 80Z" fill="#6E7D9A"/>
<path fill-rule="evenodd" clip-rule="evenodd" d="M304 0C304 -35.3462 332.654 -64 368 -64C403.346 -64 432 -35.3462 432 0C432 35.3462 403.346 64 368 64C332.654 64 304 35.3462 304 0ZM368 48C341.49 48 320 26.5097 320 0C320 -26.5097 341.49 -48 368 -48C394.51 -48 416 -26.5097 416 0C416 26.5097 394.51 48 368 48Z" fill="#6E7D9A"/>
<path fill-rule="evenodd" clip-rule="evenodd" d="M436 104C411.699 104 392 123.699 392 148C392 172.301 411.699 192 436 192C460.301 192 480 172.301 480 148C480 123.699 460.301 104 436 104ZM408 148C408 163.464 420.536 176 436 176C451.464 176 464 163.464 464 148C464 132.536 451.464 120 436 120C420.536 120 408 132.536 408 148Z" fill="#6E7D9A"/>
<path fill-rule="evenodd" clip-rule="evenodd" d="M248 -44.6418C229.883 -93.3223 182.991 -128 128 -128C57.3076 -128 0 -70.6924 0 0C0 70.6924 57.3076 128 128 128C182.991 128 229.883 93.3223 248 44.6418C265.531 91.7472 310.005 125.741 362.689 127.892C360.936 134.297 360 141.039 360 148C360 189.974 394.026 224 436 224C477.974 224 512 189.974 512 148C512 117.654 494.215 91.4623 468.499 79.2795C485.721 57.4782 496 29.9395 496 0C496 -70.6924 438.692 -128 368 -128C313.009 -128 266.117 -93.3223 248 -44.6418ZM128 112C66.1441 112 16 61.8559 16 0C16 -61.8559 66.1441 -112 128 -112C189.856 -112 240 -61.8559 240 0C240 61.8559 189.856 112 128 112ZM256 0C256 61.8559 306.144 112 368 112C368.351 112 368.702 111.998 369.053 111.995C372.402 105.781 376.592 100.086 381.469 95.0626C377.068 95.6805 372.571 96 368 96C314.981 96 272 53.0193 272 0C272 -53.0193 314.981 -96 368 -96C421.019 -96 464 -53.0193 464 0C464 28.7491 451.363 54.5465 431.34 72.1405C432.882 72.0473 434.435 72 436 72C441.592 72 447.044 72.604 452.292 73.7504C469.544 54.0485 480 28.2453 480 0C480 -61.8559 429.856 -112 368 -112C306.144 -112 256 -61.8559 256 0ZM368 80C323.817 80 288 44.1828 288 0C288 -44.1828 323.817 -80 368 -80C412.183 -80 448 -44.1828 448 0C448 44.1828 412.183 80 368 80ZM376 148C376 181.137 402.863 208 436 208C469.137 208 496 181.137 496 148C496 114.863 469.137 88 436 88C402.863 88 376 114.863 376 148Z" fill="#6E7D9A"/>
<path d="M528 212C521.373 212 516 217.373 516 224C516 230.627 521.373 236 528 236C534.627 236 540 230.627 540 224C540 217.373 534.627 212 528 212Z" fill="#6E7D9A"/>
<path d="M312 219C312 207.954 320.954 199 332 199C343.046 199 352 207.954 352 219C352 230.046 343.046 239 332 239C320.954 239 312 230.046 312 219Z" fill="#6E7D9A"/>
</g>
</svg>
